Land_normalized_Motion_pl08
version=1
nRows=8
nColumns=43
inDegrees=yes
endheader
time		pelvis_tilt		pelvis_list		pelvis_rotation		pelvis_tx		pelvis_ty		pelvis_tz		hip_flexion_r		hip_adduction_r		hip_rotation_r		knee_angle_r		ankle_angle_r		subtalar_angle_r		mtp_angle_r		hip_flexion_l		hip_adduction_l		hip_rotation_l		knee_angle_l		ankle_angle_l		subtalar_angle_l		mtp_angle_l		lumbar_extension		lumbar_bending		lumbar_rotation		neck_flexion		neck_lateral_bending		neck_rotation		arm_flex_r		arm_add_r		arm_rot_r		elbow_flex_r		pro_sup_r		wrist_flex_r		wrist_dev_r		hand_finger_flex_r		arm_flex_l		arm_add_l		arm_rot_l		elbow_flex_l		pro_sup_l		wrist_flex_l		wrist_dev_l		hand_finger_flex_l		
2.375278		-0.368944		4.934188		91.808801		-0.019830		0.510059		0.480149		79.810290		-5.475049		2.612750		-122.729730		13.425148		-1.362409		19.213146		76.945798		-4.712996		4.313691		-122.054469		19.549688		7.026970		29.311746		-47.219101		-3.811237		-4.326004		8.937456		6.396675		-1.730494		29.408207		-23.454517		-5.782933		63.234534		113.138778		-10.989966		-16.995699		-37.568617		40.518263		-26.869767		1.988717		68.426203		128.611836		-30.868264		-5.108343		-8.178231		
2.378333		-0.429042		4.863508		91.750899		-0.019668		0.505759		0.479967		80.584770		-5.592249		2.753475		-123.466616		13.407371		-1.048453		19.507029		77.554792		-4.842174		4.225587		-122.719421		19.679958		6.968458		29.376109		-47.649903		-3.906770		-4.182443		9.243778		6.476573		-1.830668		31.258935		-24.011840		-4.520675		63.799823		113.351623		-10.912558		-17.239686		-37.601181		43.242641		-26.969312		3.655483		68.257576		128.860698		-30.434902		-4.952892		-8.197525		
2.381389		-0.548231		4.806884		91.686984		-0.019397		0.501607		0.479826		81.304802		-5.750461		2.927699		-124.152812		13.445348		-0.582066		19.942646		78.117141		-5.010355		4.060061		-123.345202		19.790612		6.915927		29.462422		-48.072297		-4.105210		-3.922801		9.391798		6.676712		-2.091170		32.978535		-24.668878		-3.323187		64.359183		113.485173		-11.163249		-17.465364		-37.780865		46.231216		-26.930468		5.683610		67.862108		129.132086		-30.093890		-4.555269		-8.358712		
2.384444		-0.632656		4.797935		91.590769		-0.019015		0.497647		0.479678		81.901644		-5.909851		3.022432		-124.781604		13.652013		-0.047955		20.372736		78.606605		-5.264558		3.933461		-123.950039		19.933790		6.990238		29.555512		-48.527048		-4.314068		-3.569575		9.495401		6.916593		-2.418541		34.677100		-25.392113		-2.119192		64.909055		113.613506		-11.641969		-17.584468		-37.934545		49.288264		-26.763397		7.744643		67.332347		129.592103		-29.683401		-4.198772		-8.601106		
2.387500		-0.666410		4.669770		91.506838		-0.018882		0.493583		0.479518		82.570411		-6.103680		3.032612		-125.368425		13.881570		0.204728		20.596798		79.228165		-5.518917		3.826343		-124.544087		20.115935		7.044752		29.614947		-48.885591		-4.391936		-3.369719		9.893857		6.936136		-2.508376		36.579828		-26.061359		-0.842375		65.370946		113.866058		-11.569408		-17.727715		-37.843641		51.956300		-26.654654		9.249800		67.099204		130.001567		-29.120114		-4.207362		-8.618828		
2.390556		-0.718951		4.698032		91.375931		-0.018433		0.489893		0.479267		83.001746		-6.252690		3.092628		-125.933178		14.325328		0.897986		21.072599		79.632084		-5.895384		3.740444		-125.107523		20.328340		7.336871		29.744913		-49.329155		-4.625462		-2.835987		9.892089		7.257787		-3.003800		38.212954		-26.917292		0.332439		65.837687		113.865763		-12.398539		-17.684096		-38.018844		55.112765		-26.187949		11.397815		66.278347		130.825429		-28.679386		-3.874088		-9.033555		
2.393611		-0.745432		4.601401		91.272772		-0.018223		0.486051		0.478963		83.538652		-6.404433		3.126864		-126.472083		14.718357		1.298926		21.332575		80.172803		-6.210140		3.682148		-125.680135		20.567734		7.568200		29.837534		-49.658900		-4.739472		-2.510509		10.153910		7.343625		-3.223454		40.068976		-27.665522		1.583370		66.183498		113.946550		-12.543563		-17.711643		-37.985297		57.800902		-25.816160		12.905307		65.806476		131.565046		-28.089543		-3.950481		-9.183041		
2.396667		-0.781383		4.528412		91.161642		-0.018014		0.482326		0.478591		84.018028		-6.524660		3.210639		-126.996288		15.163115		1.794822		21.626449		80.671663		-6.534247		3.633857		-126.242353		20.826037		7.868061		29.946667		-49.978736		-4.872509		-2.117905		10.329865		7.488822		-3.519278		41.894522		-28.445861		2.819391		66.476033		113.933366		-12.813719		-17.698566		-38.020496		60.516890		-25.330476		14.458005		65.203116		132.447310		-27.503809		-4.025076		-9.406049		
